<?xml version="1.0" encoding="iso-8859-1"?>
<!-- Generator: Adobe Illustrator 21.0.0, SVG Export Plug-In . SVG Version: 6.00 Build 0)  -->
<svg version="1.1" id="Layer_1" xmlns="http://www.w3.org/2000/svg" xmlns:xlink="http://www.w3.org/1999/xlink" x="0px" y="0px"
	 viewBox="0 0 2877.165 1474.016" style="enable-background:new 0 0 2877.165 1474.016;" xml:space="preserve">
<line style="fill:#FFFFFF;stroke:#000000;stroke-miterlimit:10;" x1="962.362" y1="116.22" x2="962.362" y2="130.394"/>
<line style="fill:#FFFFFF;stroke:#000000;stroke-miterlimit:10;" x1="962.362" y1="133.228" x2="962.362" y2="360"/>
<line style="fill:#FFFFFF;stroke:#000000;stroke-miterlimit:10;" x1="962.362" y1="362.835" x2="962.362" y2="589.606"/>
<line style="fill:#FFFFFF;stroke:#000000;stroke-miterlimit:10;" x1="962.362" y1="592.441" x2="962.362" y2="819.213"/>
<line style="fill:#FFFFFF;stroke:#000000;stroke-miterlimit:10;" x1="962.362" y1="822.047" x2="962.362" y2="1048.819"/>
<line style="fill:#FFFFFF;stroke:#000000;stroke-miterlimit:10;" x1="962.362" y1="1051.654" x2="962.362" y2="1278.425"/>
<line style="fill:#FFFFFF;stroke:#000000;stroke-miterlimit:10;" x1="962.362" y1="1281.26" x2="962.362" y2="1357.795"/>
<line style="fill:#FFFFFF;stroke:#000000;stroke-miterlimit:10;" x1="874.488" y1="28.346" x2="830.551" y2="28.346"/>
<line style="fill:#FFFFFF;stroke:#000000;stroke-miterlimit:10;" x1="827.717" y1="28.346" x2="600.945" y2="28.346"/>
<line style="fill:#FFFFFF;stroke:#000000;stroke-miterlimit:10;" x1="598.11" y1="28.346" x2="371.339" y2="28.346"/>
<line style="fill:#FFFFFF;stroke:#000000;stroke-miterlimit:10;" x1="368.504" y1="28.346" x2="141.732" y2="28.346"/>
<line style="fill:#FFFFFF;stroke:#000000;stroke-miterlimit:10;" x1="138.898" y1="28.346" x2="94.961" y2="28.346"/>
<line style="fill:#FFFFFF;stroke:#000000;stroke-miterlimit:10;" x1="874.488" y1="1445.669" x2="830.551" y2="1445.669"/>
<line style="fill:#FFFFFF;stroke:#000000;stroke-miterlimit:10;" x1="827.717" y1="1445.669" x2="600.945" y2="1445.669"/>
<line style="fill:#FFFFFF;stroke:#000000;stroke-miterlimit:10;" x1="598.11" y1="1445.669" x2="371.339" y2="1445.669"/>
<line style="fill:#FFFFFF;stroke:#000000;stroke-miterlimit:10;" x1="368.504" y1="1445.669" x2="141.732" y2="1445.669"/>
<line style="fill:#FFFFFF;stroke:#000000;stroke-miterlimit:10;" x1="138.898" y1="1445.669" x2="94.961" y2="1445.669"/>
<line style="fill:#FFFFFF;stroke:#000000;stroke-miterlimit:10;" x1="962.362" y1="113.386" x2="877.323" y2="28.346"/>
<line style="fill:#FFFFFF;stroke:#000000;stroke-miterlimit:10;" x1="12.756" y1="110.551" x2="92.126" y2="31.181"/>
<line style="fill:#FFFFFF;stroke:#000000;stroke-miterlimit:10;" x1="12.756" y1="1363.465" x2="92.126" y2="1442.835"/>
<line style="fill:#FFFFFF;stroke:#000000;stroke-miterlimit:10;" x1="877.323" y1="1445.669" x2="962.362" y2="1360.63"/>
<line style="fill:#FFFFFF;stroke:#000000;stroke-miterlimit:10;" x1="9.921" y1="113.386" x2="9.921" y2="340.157"/>
<line style="fill:#FFFFFF;stroke:#000000;stroke-miterlimit:10;" x1="9.921" y1="342.992" x2="9.921" y2="569.764"/>
<line style="fill:#FFFFFF;stroke:#000000;stroke-miterlimit:10;" x1="9.921" y1="572.598" x2="9.921" y2="799.37"/>
<line style="fill:#FFFFFF;stroke:#000000;stroke-miterlimit:10;" x1="9.921" y1="802.205" x2="9.921" y2="1028.976"/>
<line style="fill:#FFFFFF;stroke:#000000;stroke-miterlimit:10;" x1="9.921" y1="1031.811" x2="9.921" y2="1258.583"/>
<line style="fill:#FFFFFF;stroke:#000000;stroke-miterlimit:10;" x1="9.921" y1="1261.417" x2="9.921" y2="1360.63"/>
<line style="fill:#FFFFFF;stroke:#000000;stroke-miterlimit:10;" x1="493.228" y1="55.984" x2="493.228" y2="50.315"/>
<line style="fill:#FFFFFF;stroke:#000000;stroke-miterlimit:10;" x1="492.52" y1="42.52" x2="486.85" y2="42.52"/>
<line style="fill:#FFFFFF;stroke:#000000;stroke-miterlimit:10;" x1="486.142" y1="43.228" x2="486.142" y2="48.898"/>
<line style="fill:#FFFFFF;stroke:#000000;stroke-miterlimit:10;" x1="486.85" y1="56.693" x2="492.52" y2="56.693"/>
<line style="fill:#FFFFFF;stroke:#000000;stroke-miterlimit:10;" x1="492.52" y1="49.606" x2="486.85" y2="49.606"/>
<line style="fill:#FFFFFF;stroke:#000000;stroke-miterlimit:10;" x1="503.858" y1="55.984" x2="503.858" y2="50.315"/>
<line style="fill:#FFFFFF;stroke:#000000;stroke-miterlimit:10;" x1="503.858" y1="48.898" x2="503.858" y2="43.228"/>
<line style="fill:#FFFFFF;stroke:#000000;stroke-miterlimit:10;" x1="503.15" y1="42.52" x2="497.48" y2="42.52"/>
<line style="fill:#FFFFFF;stroke:#000000;stroke-miterlimit:10;" x1="496.772" y1="43.228" x2="496.772" y2="48.898"/>
<line style="fill:#FFFFFF;stroke:#000000;stroke-miterlimit:10;" x1="496.772" y1="50.315" x2="496.772" y2="55.984"/>
<line style="fill:#FFFFFF;stroke:#000000;stroke-miterlimit:10;" x1="497.48" y1="56.693" x2="503.15" y2="56.693"/>
<line style="fill:#FFFFFF;stroke:#000000;stroke-miterlimit:10;" x1="514.488" y1="55.984" x2="514.488" y2="50.315"/>
<line style="fill:#FFFFFF;stroke:#000000;stroke-miterlimit:10;" x1="514.488" y1="48.898" x2="514.488" y2="43.228"/>
<line style="fill:#FFFFFF;stroke:#000000;stroke-miterlimit:10;" x1="513.78" y1="42.52" x2="508.11" y2="42.52"/>
<line style="fill:#FFFFFF;stroke:#000000;stroke-miterlimit:10;" x1="507.402" y1="43.228" x2="507.402" y2="48.898"/>
<line style="fill:#FFFFFF;stroke:#000000;stroke-miterlimit:10;" x1="507.402" y1="50.315" x2="507.402" y2="55.984"/>
<line style="fill:#FFFFFF;stroke:#000000;stroke-miterlimit:10;" x1="508.11" y1="56.693" x2="513.78" y2="56.693"/>
<line style="fill:#FFFFFF;stroke:#000000;stroke-miterlimit:10;" x1="557.008" y1="55.984" x2="557.008" y2="50.315"/>
<line style="fill:#FFFFFF;stroke:#000000;stroke-miterlimit:10;" x1="557.008" y1="48.898" x2="557.008" y2="43.228"/>
<line style="fill:#FFFFFF;stroke:#000000;stroke-miterlimit:10;" x1="556.299" y1="42.52" x2="550.63" y2="42.52"/>
<line style="fill:#FFFFFF;stroke:#000000;stroke-miterlimit:10;" x1="550.63" y1="56.693" x2="556.299" y2="56.693"/>
<line style="fill:#FFFFFF;stroke:#000000;stroke-miterlimit:10;" x1="556.299" y1="49.606" x2="550.63" y2="49.606"/>
<line style="fill:#FFFFFF;stroke:#000000;stroke-miterlimit:10;" x1="567.638" y1="55.984" x2="567.638" y2="50.315"/>
<line style="fill:#FFFFFF;stroke:#000000;stroke-miterlimit:10;" x1="567.638" y1="48.898" x2="567.638" y2="43.228"/>
<line style="fill:#FFFFFF;stroke:#000000;stroke-miterlimit:10;" x1="566.929" y1="42.52" x2="561.26" y2="42.52"/>
<line style="fill:#FFFFFF;stroke:#000000;stroke-miterlimit:10;" x1="561.26" y1="56.693" x2="566.929" y2="56.693"/>
<line style="fill:#FFFFFF;stroke:#000000;stroke-miterlimit:10;" x1="566.929" y1="49.606" x2="561.26" y2="49.606"/>
<line style="fill:#FFFFFF;stroke:#000000;stroke-miterlimit:10;" x1="578.268" y1="55.984" x2="578.268" y2="50.315"/>
<line style="fill:#FFFFFF;stroke:#000000;stroke-miterlimit:10;" x1="577.559" y1="42.52" x2="571.89" y2="42.52"/>
<line style="fill:#FFFFFF;stroke:#000000;stroke-miterlimit:10;" x1="571.181" y1="43.228" x2="571.181" y2="48.898"/>
<line style="fill:#FFFFFF;stroke:#000000;stroke-miterlimit:10;" x1="571.181" y1="50.315" x2="571.181" y2="55.984"/>
<line style="fill:#FFFFFF;stroke:#000000;stroke-miterlimit:10;" x1="571.89" y1="56.693" x2="577.559" y2="56.693"/>
<line style="fill:#FFFFFF;stroke:#000000;stroke-miterlimit:10;" x1="577.559" y1="49.606" x2="571.89" y2="49.606"/>
<line style="fill:#FFFFFF;stroke:#000000;stroke-miterlimit:10;" x1="1914.803" y1="116.22" x2="1914.803" y2="144.567"/>
<line style="fill:#FFFFFF;stroke:#000000;stroke-miterlimit:10;" x1="1914.803" y1="147.402" x2="1914.803" y2="374.173"/>
<line style="fill:#FFFFFF;stroke:#000000;stroke-miterlimit:10;" x1="1914.803" y1="377.008" x2="1914.803" y2="603.78"/>
<line style="fill:#FFFFFF;stroke:#000000;stroke-miterlimit:10;" x1="1914.803" y1="606.614" x2="1914.803" y2="833.386"/>
<line style="fill:#FFFFFF;stroke:#000000;stroke-miterlimit:10;" x1="1914.803" y1="836.22" x2="1914.803" y2="1062.992"/>
<line style="fill:#FFFFFF;stroke:#000000;stroke-miterlimit:10;" x1="1914.803" y1="1065.827" x2="1914.803" y2="1292.598"/>
<line style="fill:#FFFFFF;stroke:#000000;stroke-miterlimit:10;" x1="1914.803" y1="1295.433" x2="1914.803" y2="1357.795"/>
<line style="fill:#FFFFFF;stroke:#000000;stroke-miterlimit:10;" x1="1826.929" y1="28.346" x2="1782.992" y2="28.346"/>
<line style="fill:#FFFFFF;stroke:#000000;stroke-miterlimit:10;" x1="1780.157" y1="28.346" x2="1553.386" y2="28.346"/>
<line style="fill:#FFFFFF;stroke:#000000;stroke-miterlimit:10;" x1="1550.551" y1="28.346" x2="1323.78" y2="28.346"/>
<line style="fill:#FFFFFF;stroke:#000000;stroke-miterlimit:10;" x1="1320.945" y1="28.346" x2="1094.173" y2="28.346"/>
<line style="fill:#FFFFFF;stroke:#000000;stroke-miterlimit:10;" x1="1091.339" y1="28.346" x2="1047.402" y2="28.346"/>
<line style="fill:#FFFFFF;stroke:#000000;stroke-miterlimit:10;" x1="1826.929" y1="1445.669" x2="1782.992" y2="1445.669"/>
<line style="fill:#FFFFFF;stroke:#000000;stroke-miterlimit:10;" x1="1780.157" y1="1445.669" x2="1553.386" y2="1445.669"/>
<line style="fill:#FFFFFF;stroke:#000000;stroke-miterlimit:10;" x1="1550.551" y1="1445.669" x2="1323.78" y2="1445.669"/>
<line style="fill:#FFFFFF;stroke:#000000;stroke-miterlimit:10;" x1="1320.945" y1="1445.669" x2="1094.173" y2="1445.669"/>
<line style="fill:#FFFFFF;stroke:#000000;stroke-miterlimit:10;" x1="1091.339" y1="1445.669" x2="1047.402" y2="1445.669"/>
<line style="fill:#FFFFFF;stroke:#000000;stroke-miterlimit:10;" x1="1914.803" y1="113.386" x2="1829.764" y2="28.346"/>
<line style="fill:#FFFFFF;stroke:#000000;stroke-miterlimit:10;" x1="965.197" y1="110.551" x2="1044.567" y2="31.181"/>
<line style="fill:#FFFFFF;stroke:#000000;stroke-miterlimit:10;" x1="965.197" y1="1363.465" x2="1044.567" y2="1442.835"/>
<line style="fill:#FFFFFF;stroke:#000000;stroke-miterlimit:10;" x1="1829.764" y1="1445.669" x2="1914.803" y2="1360.63"/>
<line style="fill:#FFFFFF;stroke:#000000;stroke-miterlimit:10;" x1="1445.669" y1="55.984" x2="1445.669" y2="50.315"/>
<line style="fill:#FFFFFF;stroke:#000000;stroke-miterlimit:10;" x1="1444.961" y1="42.52" x2="1439.291" y2="42.52"/>
<line style="fill:#FFFFFF;stroke:#000000;stroke-miterlimit:10;" x1="1438.583" y1="43.228" x2="1438.583" y2="48.898"/>
<line style="fill:#FFFFFF;stroke:#000000;stroke-miterlimit:10;" x1="1439.291" y1="56.693" x2="1444.961" y2="56.693"/>
<line style="fill:#FFFFFF;stroke:#000000;stroke-miterlimit:10;" x1="1444.961" y1="49.606" x2="1439.291" y2="49.606"/>
<line style="fill:#FFFFFF;stroke:#000000;stroke-miterlimit:10;" x1="1456.299" y1="55.984" x2="1456.299" y2="50.315"/>
<line style="fill:#FFFFFF;stroke:#000000;stroke-miterlimit:10;" x1="1456.299" y1="48.898" x2="1456.299" y2="43.228"/>
<line style="fill:#FFFFFF;stroke:#000000;stroke-miterlimit:10;" x1="1455.591" y1="42.52" x2="1449.921" y2="42.52"/>
<line style="fill:#FFFFFF;stroke:#000000;stroke-miterlimit:10;" x1="1449.213" y1="43.228" x2="1449.213" y2="48.898"/>
<line style="fill:#FFFFFF;stroke:#000000;stroke-miterlimit:10;" x1="1449.213" y1="50.315" x2="1449.213" y2="55.984"/>
<line style="fill:#FFFFFF;stroke:#000000;stroke-miterlimit:10;" x1="1449.921" y1="56.693" x2="1455.591" y2="56.693"/>
<line style="fill:#FFFFFF;stroke:#000000;stroke-miterlimit:10;" x1="1466.929" y1="55.984" x2="1466.929" y2="50.315"/>
<line style="fill:#FFFFFF;stroke:#000000;stroke-miterlimit:10;" x1="1466.929" y1="48.898" x2="1466.929" y2="43.228"/>
<line style="fill:#FFFFFF;stroke:#000000;stroke-miterlimit:10;" x1="1466.22" y1="42.52" x2="1460.551" y2="42.52"/>
<line style="fill:#FFFFFF;stroke:#000000;stroke-miterlimit:10;" x1="1459.843" y1="43.228" x2="1459.843" y2="48.898"/>
<line style="fill:#FFFFFF;stroke:#000000;stroke-miterlimit:10;" x1="1459.843" y1="50.315" x2="1459.843" y2="55.984"/>
<line style="fill:#FFFFFF;stroke:#000000;stroke-miterlimit:10;" x1="1460.551" y1="56.693" x2="1466.22" y2="56.693"/>
<line style="fill:#FFFFFF;stroke:#000000;stroke-miterlimit:10;" x1="1509.449" y1="55.984" x2="1509.449" y2="50.315"/>
<line style="fill:#FFFFFF;stroke:#000000;stroke-miterlimit:10;" x1="1509.449" y1="48.898" x2="1509.449" y2="43.228"/>
<line style="fill:#FFFFFF;stroke:#000000;stroke-miterlimit:10;" x1="1508.74" y1="42.52" x2="1503.071" y2="42.52"/>
<line style="fill:#FFFFFF;stroke:#000000;stroke-miterlimit:10;" x1="1503.071" y1="56.693" x2="1508.74" y2="56.693"/>
<line style="fill:#FFFFFF;stroke:#000000;stroke-miterlimit:10;" x1="1508.74" y1="49.606" x2="1503.071" y2="49.606"/>
<line style="fill:#FFFFFF;stroke:#000000;stroke-miterlimit:10;" x1="1520.079" y1="55.984" x2="1520.079" y2="50.315"/>
<line style="fill:#FFFFFF;stroke:#000000;stroke-miterlimit:10;" x1="1520.079" y1="48.898" x2="1520.079" y2="43.228"/>
<line style="fill:#FFFFFF;stroke:#000000;stroke-miterlimit:10;" x1="1519.37" y1="42.52" x2="1513.701" y2="42.52"/>
<line style="fill:#FFFFFF;stroke:#000000;stroke-miterlimit:10;" x1="1513.701" y1="56.693" x2="1519.37" y2="56.693"/>
<line style="fill:#FFFFFF;stroke:#000000;stroke-miterlimit:10;" x1="1519.37" y1="49.606" x2="1513.701" y2="49.606"/>
<line style="fill:#FFFFFF;stroke:#000000;stroke-miterlimit:10;" x1="1530.709" y1="55.984" x2="1530.709" y2="50.315"/>
<line style="fill:#FFFFFF;stroke:#000000;stroke-miterlimit:10;" x1="1530" y1="42.52" x2="1524.331" y2="42.52"/>
<line style="fill:#FFFFFF;stroke:#000000;stroke-miterlimit:10;" x1="1523.622" y1="43.228" x2="1523.622" y2="48.898"/>
<line style="fill:#FFFFFF;stroke:#000000;stroke-miterlimit:10;" x1="1523.622" y1="50.315" x2="1523.622" y2="55.984"/>
<line style="fill:#FFFFFF;stroke:#000000;stroke-miterlimit:10;" x1="1524.331" y1="56.693" x2="1530" y2="56.693"/>
<line style="fill:#FFFFFF;stroke:#000000;stroke-miterlimit:10;" x1="1530" y1="49.606" x2="1524.331" y2="49.606"/>
<line style="fill:#FFFFFF;stroke:#000000;stroke-miterlimit:10;" x1="2867.244" y1="116.22" x2="2867.244" y2="158.74"/>
<line style="fill:#FFFFFF;stroke:#000000;stroke-miterlimit:10;" x1="2867.244" y1="161.575" x2="2867.244" y2="388.346"/>
<line style="fill:#FFFFFF;stroke:#000000;stroke-miterlimit:10;" x1="2867.244" y1="391.181" x2="2867.244" y2="617.953"/>
<line style="fill:#FFFFFF;stroke:#000000;stroke-miterlimit:10;" x1="2867.244" y1="620.787" x2="2867.244" y2="847.559"/>
<line style="fill:#FFFFFF;stroke:#000000;stroke-miterlimit:10;" x1="2867.244" y1="850.394" x2="2867.244" y2="1077.165"/>
<line style="fill:#FFFFFF;stroke:#000000;stroke-miterlimit:10;" x1="2867.244" y1="1080" x2="2867.244" y2="1306.772"/>
<line style="fill:#FFFFFF;stroke:#000000;stroke-miterlimit:10;" x1="2867.244" y1="1309.606" x2="2867.244" y2="1357.795"/>
<line style="fill:#FFFFFF;stroke:#000000;stroke-miterlimit:10;" x1="2779.37" y1="28.346" x2="2735.433" y2="28.346"/>
<line style="fill:#FFFFFF;stroke:#000000;stroke-miterlimit:10;" x1="2732.598" y1="28.346" x2="2505.827" y2="28.346"/>
<line style="fill:#FFFFFF;stroke:#000000;stroke-miterlimit:10;" x1="2502.992" y1="28.346" x2="2276.22" y2="28.346"/>
<line style="fill:#FFFFFF;stroke:#000000;stroke-miterlimit:10;" x1="2273.386" y1="28.346" x2="2046.614" y2="28.346"/>
<line style="fill:#FFFFFF;stroke:#000000;stroke-miterlimit:10;" x1="2043.78" y1="28.346" x2="1999.843" y2="28.346"/>
<line style="fill:#FFFFFF;stroke:#000000;stroke-miterlimit:10;" x1="2779.37" y1="1445.669" x2="2735.433" y2="1445.669"/>
<line style="fill:#FFFFFF;stroke:#000000;stroke-miterlimit:10;" x1="2732.598" y1="1445.669" x2="2505.827" y2="1445.669"/>
<line style="fill:#FFFFFF;stroke:#000000;stroke-miterlimit:10;" x1="2502.992" y1="1445.669" x2="2276.22" y2="1445.669"/>
<line style="fill:#FFFFFF;stroke:#000000;stroke-miterlimit:10;" x1="2273.386" y1="1445.669" x2="2046.614" y2="1445.669"/>
<line style="fill:#FFFFFF;stroke:#000000;stroke-miterlimit:10;" x1="2043.78" y1="1445.669" x2="1999.843" y2="1445.669"/>
<line style="fill:#FFFFFF;stroke:#000000;stroke-miterlimit:10;" x1="2867.244" y1="113.386" x2="2782.205" y2="28.346"/>
<line style="fill:#FFFFFF;stroke:#000000;stroke-miterlimit:10;" x1="1917.638" y1="110.551" x2="1997.008" y2="31.181"/>
<line style="fill:#FFFFFF;stroke:#000000;stroke-miterlimit:10;" x1="1917.638" y1="1363.465" x2="1997.008" y2="1442.835"/>
<line style="fill:#FFFFFF;stroke:#000000;stroke-miterlimit:10;" x1="2782.205" y1="1445.669" x2="2867.244" y2="1360.63"/>
<line style="fill:#FFFFFF;stroke:#000000;stroke-miterlimit:10;" x1="2398.11" y1="55.984" x2="2398.11" y2="50.315"/>
<line style="fill:#FFFFFF;stroke:#000000;stroke-miterlimit:10;" x1="2397.402" y1="42.52" x2="2391.732" y2="42.52"/>
<line style="fill:#FFFFFF;stroke:#000000;stroke-miterlimit:10;" x1="2391.024" y1="43.228" x2="2391.024" y2="48.898"/>
<line style="fill:#FFFFFF;stroke:#000000;stroke-miterlimit:10;" x1="2391.732" y1="56.693" x2="2397.402" y2="56.693"/>
<line style="fill:#FFFFFF;stroke:#000000;stroke-miterlimit:10;" x1="2397.402" y1="49.606" x2="2391.732" y2="49.606"/>
<line style="fill:#FFFFFF;stroke:#000000;stroke-miterlimit:10;" x1="2408.74" y1="55.984" x2="2408.74" y2="50.315"/>
<line style="fill:#FFFFFF;stroke:#000000;stroke-miterlimit:10;" x1="2408.74" y1="48.898" x2="2408.74" y2="43.228"/>
<line style="fill:#FFFFFF;stroke:#000000;stroke-miterlimit:10;" x1="2408.031" y1="42.52" x2="2402.362" y2="42.52"/>
<line style="fill:#FFFFFF;stroke:#000000;stroke-miterlimit:10;" x1="2401.654" y1="43.228" x2="2401.654" y2="48.898"/>
<line style="fill:#FFFFFF;stroke:#000000;stroke-miterlimit:10;" x1="2401.654" y1="50.315" x2="2401.654" y2="55.984"/>
<line style="fill:#FFFFFF;stroke:#000000;stroke-miterlimit:10;" x1="2402.362" y1="56.693" x2="2408.031" y2="56.693"/>
<line style="fill:#FFFFFF;stroke:#000000;stroke-miterlimit:10;" x1="2419.37" y1="55.984" x2="2419.37" y2="50.315"/>
<line style="fill:#FFFFFF;stroke:#000000;stroke-miterlimit:10;" x1="2419.37" y1="48.898" x2="2419.37" y2="43.228"/>
<line style="fill:#FFFFFF;stroke:#000000;stroke-miterlimit:10;" x1="2418.661" y1="42.52" x2="2412.992" y2="42.52"/>
<line style="fill:#FFFFFF;stroke:#000000;stroke-miterlimit:10;" x1="2412.283" y1="43.228" x2="2412.283" y2="48.898"/>
<line style="fill:#FFFFFF;stroke:#000000;stroke-miterlimit:10;" x1="2412.283" y1="50.315" x2="2412.283" y2="55.984"/>
<line style="fill:#FFFFFF;stroke:#000000;stroke-miterlimit:10;" x1="2412.992" y1="56.693" x2="2418.661" y2="56.693"/>
<line style="fill:#FFFFFF;stroke:#000000;stroke-miterlimit:10;" x1="2461.89" y1="55.984" x2="2461.89" y2="50.315"/>
<line style="fill:#FFFFFF;stroke:#000000;stroke-miterlimit:10;" x1="2461.89" y1="48.898" x2="2461.89" y2="43.228"/>
<line style="fill:#FFFFFF;stroke:#000000;stroke-miterlimit:10;" x1="2461.181" y1="42.52" x2="2455.512" y2="42.52"/>
<line style="fill:#FFFFFF;stroke:#000000;stroke-miterlimit:10;" x1="2455.512" y1="56.693" x2="2461.181" y2="56.693"/>
<line style="fill:#FFFFFF;stroke:#000000;stroke-miterlimit:10;" x1="2461.181" y1="49.606" x2="2455.512" y2="49.606"/>
<line style="fill:#FFFFFF;stroke:#000000;stroke-miterlimit:10;" x1="2472.52" y1="55.984" x2="2472.52" y2="50.315"/>
<line style="fill:#FFFFFF;stroke:#000000;stroke-miterlimit:10;" x1="2472.52" y1="48.898" x2="2472.52" y2="43.228"/>
<line style="fill:#FFFFFF;stroke:#000000;stroke-miterlimit:10;" x1="2471.811" y1="42.52" x2="2466.142" y2="42.52"/>
<line style="fill:#FFFFFF;stroke:#000000;stroke-miterlimit:10;" x1="2466.142" y1="56.693" x2="2471.811" y2="56.693"/>
<line style="fill:#FFFFFF;stroke:#000000;stroke-miterlimit:10;" x1="2471.811" y1="49.606" x2="2466.142" y2="49.606"/>
<line style="fill:#FFFFFF;stroke:#000000;stroke-miterlimit:10;" x1="2483.15" y1="55.984" x2="2483.15" y2="50.315"/>
<line style="fill:#FFFFFF;stroke:#000000;stroke-miterlimit:10;" x1="2482.441" y1="42.52" x2="2476.772" y2="42.52"/>
<line style="fill:#FFFFFF;stroke:#000000;stroke-miterlimit:10;" x1="2476.063" y1="43.228" x2="2476.063" y2="48.898"/>
<line style="fill:#FFFFFF;stroke:#000000;stroke-miterlimit:10;" x1="2476.063" y1="50.315" x2="2476.063" y2="55.984"/>
<line style="fill:#FFFFFF;stroke:#000000;stroke-miterlimit:10;" x1="2476.772" y1="56.693" x2="2482.441" y2="56.693"/>
<line style="fill:#FFFFFF;stroke:#000000;stroke-miterlimit:10;" x1="2482.441" y1="49.606" x2="2476.772" y2="49.606"/>
</svg>
